<svg width="105" height="34" viewBox="0 0 105 34" fill="none" xmlns="http://www.w3.org/2000/svg">
<g id="secure-logo">
<path id="Vector" d="M15.6018 33.0499C15.3544 33.0499 15.1113 32.9848 14.8973 32.861C5.67876 27.5359 2.17714 19.9023 0.862845 14.4362C-0.557851 8.52784 0.196176 3.90198 0.229496 3.70896C0.268032 3.48054 0.362912 3.26523 0.505615 3.08237C0.648318 2.8995 0.834376 2.75481 1.04708 2.66128C1.18708 2.59963 4.54702 1.1408 9.80533 0.40553C14.6473 -0.271724 22.0971 -0.434344 30.0929 2.63701C30.3104 2.72043 30.5036 2.85646 30.6551 3.03283C30.8067 3.2092 30.9117 3.42036 30.9609 3.64728C31.0101 3.87421 31.0018 4.10975 30.9368 4.33268C30.8718 4.55561 30.7521 4.75892 30.5885 4.92428L15.8177 19.866C15.6877 19.9978 15.5328 20.1026 15.362 20.1744C15.1911 20.2462 15.0077 20.2836 14.8223 20.2844H14.817C14.4445 20.2843 14.0873 20.1369 13.8238 19.8746L9.08182 15.1495C8.82452 14.8859 8.68172 14.532 8.68431 14.1643C8.68689 13.7966 8.83465 13.4447 9.09563 13.1848C9.3566 12.9248 9.70982 12.7776 10.0789 12.775C10.448 12.7724 10.8032 12.9147 11.0678 13.171L14.8091 16.8981L27.0348 4.52931C15.6345 0.917376 5.63564 3.95414 2.90989 4.93962C2.77493 6.41156 2.62989 9.84888 3.6208 13.8934C5.30217 20.7647 9.33102 26.1872 15.6015 30.0229C24.7879 24.3976 27.5338 16.2775 28.2066 10.3858C28.2275 10.2033 28.2842 10.0266 28.3736 9.86586C28.463 9.70514 28.5833 9.56353 28.7276 9.44912C28.8719 9.33472 29.0375 9.24975 29.2147 9.19907C29.392 9.1484 29.5776 9.133 29.7609 9.15377C29.9441 9.17454 30.1215 9.23107 30.2828 9.32012C30.4441 9.40917 30.5863 9.52901 30.7011 9.67279C30.816 9.81657 30.9013 9.98147 30.9521 10.1581C31.003 10.3347 31.0184 10.5196 30.9976 10.7021C30.2349 17.3793 27.0673 26.6441 16.3063 32.861C16.0922 32.9847 15.8492 33.0499 15.6018 33.0499Z" fill="#0A73B7"/>
<g id="Vector_2">
<path d="M40.3495 8.85306C39.0598 8.44363 38.1283 7.93696 37.5551 7.33304C36.9819 6.7189 36.6953 5.97168 36.6953 5.09141C36.6953 4.12924 37.028 3.37179 37.6933 2.81906C38.3689 2.25609 39.331 1.97461 40.5798 1.97461C41.5215 1.97461 42.3762 2.08208 43.1439 2.29704C43.3895 2.36869 43.584 2.51711 43.7273 2.74229C43.8808 2.95724 43.9576 3.19779 43.9576 3.46392V3.90917C43.9576 4.11389 43.8706 4.27254 43.6966 4.38514C43.5226 4.49773 43.3383 4.5182 43.1439 4.44655C42.2738 4.13948 41.4703 3.98594 40.7333 3.98594C39.7916 3.98594 39.3208 4.35443 39.3208 5.09141C39.3208 5.71579 39.7302 6.16105 40.5491 6.42718C41.9616 6.85708 42.9391 7.35863 43.4816 7.93184C44.0344 8.50504 44.3107 9.25737 44.3107 10.1888C44.3107 12.3895 42.9238 13.4899 40.1499 13.4899C39.2696 13.4899 38.4712 13.3517 37.7547 13.0753C37.5091 12.9832 37.3146 12.8245 37.1713 12.5994C37.0382 12.3639 36.9717 12.108 36.9717 11.8317V11.3404C36.9717 11.1561 37.0536 11.0179 37.2173 10.9258C37.3811 10.8234 37.5449 10.8132 37.7087 10.8951C38.4559 11.2636 39.2184 11.4478 39.9964 11.4478C40.5389 11.4478 40.9483 11.3455 41.2246 11.1408C41.5113 10.9258 41.6546 10.6239 41.6546 10.2349C41.6546 9.89711 41.5573 9.62074 41.3628 9.40579C41.1684 9.19084 40.8306 9.0066 40.3495 8.85306Z" fill="#00478E"/>
<path d="M49.9475 4.40049L48.8266 8.807C48.8164 8.83771 48.8215 8.86841 48.842 8.89912C48.8727 8.91959 48.9034 8.92983 48.9341 8.92983H50.9915C51.0222 8.92983 51.0478 8.91959 51.0683 8.89912C51.099 8.86841 51.1092 8.83771 51.099 8.807L49.9782 4.40049C49.9782 4.39026 49.9731 4.38514 49.9628 4.38514C49.9526 4.38514 49.9475 4.39026 49.9475 4.40049ZM45.848 13.3363C45.6331 13.3363 45.4591 13.2493 45.326 13.0753C45.2032 12.9013 45.1776 12.712 45.2492 12.5072L48.3507 2.95724C48.4326 2.71159 48.5759 2.51199 48.7806 2.35845C48.9955 2.20491 49.231 2.12815 49.4868 2.12815H50.5002C50.7663 2.12815 51.0069 2.20491 51.2218 2.35845C51.4368 2.51199 51.5801 2.71159 51.6517 2.95724L54.7378 12.5072C54.8095 12.712 54.7788 12.9013 54.6457 13.0753C54.5229 13.2493 54.354 13.3363 54.139 13.3363H53.1103C52.8544 13.3363 52.6241 13.2596 52.4194 13.106C52.2147 12.9423 52.0816 12.7375 52.0202 12.4919L51.6517 11.0333C51.6415 10.9514 51.5903 10.9105 51.4982 10.9105H48.4274C48.3456 10.9105 48.2944 10.9514 48.2739 11.0333L47.9054 12.4919C47.844 12.7375 47.7109 12.9423 47.5062 13.106C47.3015 13.2596 47.0712 13.3363 46.8153 13.3363H45.848Z" fill="#00478E"/>
<path d="M57.0265 13.3363C56.791 13.3363 56.5863 13.2493 56.4123 13.0753C56.2383 12.9013 56.1513 12.6966 56.1513 12.4612V3.00331C56.1513 2.76788 56.2383 2.56317 56.4123 2.38916C56.5863 2.21515 56.791 2.12815 57.0265 2.12815H62.2928C62.5282 2.12815 62.7329 2.21515 62.9069 2.38916C63.0809 2.56317 63.1679 2.76788 63.1679 3.00331V3.35644C63.1679 3.59186 63.0809 3.79658 62.9069 3.97059C62.7329 4.1446 62.5282 4.2316 62.2928 4.2316H58.8996C58.8075 4.2316 58.7614 4.27254 58.7614 4.35443V6.64213C58.7614 6.73425 58.8075 6.78031 58.8996 6.78031H61.9857C62.2211 6.78031 62.4258 6.86732 62.5999 7.04132C62.7739 7.2051 62.8609 7.4047 62.8609 7.64012V7.88578C62.8609 8.1212 62.7739 8.32592 62.5999 8.49992C62.4258 8.6637 62.2211 8.74558 61.9857 8.74558H58.8996C58.8075 8.74558 58.7614 8.79164 58.7614 8.88377V12.4612C58.7614 12.6966 58.6744 12.9013 58.5004 13.0753C58.3366 13.2493 58.1371 13.3363 57.9016 13.3363H57.0265Z" fill="#00478E"/>
<path d="M66.1274 13.3363C65.8919 13.3363 65.6872 13.2493 65.5132 13.0753C65.3494 12.9013 65.2676 12.6966 65.2676 12.4612V3.00331C65.2676 2.76788 65.3494 2.56317 65.5132 2.38916C65.6872 2.21515 65.8919 2.12815 66.1274 2.12815H71.5626C71.798 2.12815 71.9976 2.21515 72.1614 2.38916C72.3354 2.56317 72.4224 2.76788 72.4224 3.00331V3.35644C72.4224 3.59186 72.3354 3.79658 72.1614 3.97059C71.9976 4.1446 71.798 4.2316 71.5626 4.2316H68.0005C67.9186 4.2316 67.8777 4.27254 67.8777 4.35443V6.38112C67.8777 6.47324 67.9186 6.5193 68.0005 6.5193H71.2555C71.4909 6.5193 71.6905 6.6063 71.8543 6.78031C72.0283 6.95432 72.1153 7.15904 72.1153 7.39446V7.62476C72.1153 7.86019 72.0283 8.0649 71.8543 8.23891C71.6905 8.41292 71.4909 8.49992 71.2555 8.49992H68.0005C67.9186 8.49992 67.8777 8.54087 67.8777 8.62275V11.1101C67.8777 11.1919 67.9186 11.2329 68.0005 11.2329H71.5626C71.798 11.2329 71.9976 11.3199 72.1614 11.4939C72.3354 11.6679 72.4224 11.8726 72.4224 12.108V12.4612C72.4224 12.6966 72.3354 12.9013 72.1614 13.0753C71.9976 13.2493 71.798 13.3363 71.5626 13.3363H66.1274Z" fill="#00478E"/>
<path d="M82.3319 9.0066C81.6256 9.51839 81.2724 9.979 81.2724 10.3884C81.2724 11.1356 81.8098 11.5092 82.8846 11.5092C83.4987 11.5092 84.0771 11.3813 84.6196 11.1254C84.6912 11.0845 84.6963 11.0333 84.6349 10.9719L82.5315 9.0066C82.47 8.94518 82.4035 8.94518 82.3319 9.0066ZM83.9901 4.06271C83.7751 3.87847 83.468 3.78634 83.0688 3.78634C82.6696 3.78634 82.3523 3.87847 82.1169 4.06271C81.8917 4.23672 81.7791 4.46191 81.7791 4.73827C81.7791 4.9737 81.8354 5.19376 81.948 5.39848C82.0606 5.6032 82.3267 5.91539 82.7464 6.33505C82.8078 6.39647 82.8744 6.40159 82.946 6.35041C83.509 6.00239 83.8775 5.72603 84.0515 5.52131C84.2255 5.31659 84.3125 5.09141 84.3125 4.84575C84.3125 4.50797 84.205 4.24695 83.9901 4.06271ZM82.7618 13.4899C79.9981 13.4899 78.6163 12.5328 78.6163 10.6187C78.6163 10.1172 78.7852 9.63098 79.1229 9.16013C79.471 8.67905 80.0544 8.16214 80.8733 7.60941C80.9347 7.56847 80.9347 7.51729 80.8733 7.45587C80.2591 6.87243 79.8394 6.376 79.6143 5.96657C79.3891 5.55714 79.2765 5.11188 79.2765 4.6308C79.2765 3.85288 79.6091 3.21826 80.2745 2.72694C80.95 2.22539 81.8661 1.97461 83.0228 1.97461C84.2613 1.97461 85.1979 2.21003 85.8325 2.68088C86.4671 3.15173 86.7844 3.81193 86.7844 4.6615C86.7844 5.204 86.6002 5.72091 86.2317 6.21223C85.8632 6.70354 85.2491 7.22045 84.3892 7.76295C84.3176 7.80389 84.3125 7.85507 84.3739 7.91648L85.7711 9.26761C85.812 9.28808 85.8427 9.27273 85.8632 9.22155V8.2082C85.8632 7.97278 85.9451 7.76807 86.1089 7.59406C86.2829 7.42005 86.4876 7.33304 86.723 7.33304H87.3525C87.5879 7.33304 87.7926 7.42005 87.9667 7.59406C88.1407 7.76807 88.2277 7.97278 88.2277 8.2082V11.5092C88.2277 11.6014 88.2584 11.6781 88.3198 11.7396L89.3485 12.7375C89.4611 12.8501 89.4867 12.9781 89.4253 13.1214C89.3741 13.2647 89.2666 13.3363 89.1028 13.3363H88.0434C87.46 13.3363 86.9533 13.1367 86.5234 12.7375C86.4722 12.6864 86.4006 12.6761 86.3085 12.7068C85.0597 13.2289 83.8775 13.4899 82.7618 13.4899Z" fill="#00478E"/>
<path d="M41.0386 25.6461C39.7489 25.2367 38.8175 24.73 38.2443 24.1261C37.671 23.512 37.3844 22.7648 37.3844 21.8845C37.3844 20.9223 37.7171 20.1649 38.3824 19.6121C39.058 19.0492 40.0202 18.7677 41.2689 18.7677C42.2106 18.7677 43.0653 18.8752 43.833 19.0901C44.0787 19.1618 44.2731 19.3102 44.4164 19.5354C44.57 19.7503 44.6467 19.9909 44.6467 20.257V20.7023C44.6467 20.907 44.5597 21.0656 44.3857 21.1782C44.2117 21.2908 44.0275 21.3113 43.833 21.2396C42.963 20.9326 42.1594 20.779 41.4225 20.779C40.4808 20.779 40.0099 21.1475 40.0099 21.8845C40.0099 22.5089 40.4194 22.9541 41.2382 23.2203C42.6508 23.6502 43.6283 24.1517 44.1708 24.7249C44.7235 25.2981 44.9999 26.0505 44.9999 26.9819C44.9999 29.1826 43.6129 30.283 40.839 30.283C39.9587 30.283 39.1604 30.1448 38.4438 29.8684C38.1982 29.7763 38.0037 29.6176 37.8604 29.3924C37.7273 29.157 37.6608 28.9011 37.6608 28.6248V28.1334C37.6608 27.9492 37.7427 27.811 37.9065 27.7189C38.0702 27.6165 38.234 27.6063 38.3978 27.6882C39.145 28.0567 39.9076 28.2409 40.6855 28.2409C41.228 28.2409 41.6374 28.1386 41.9138 27.9338C42.2004 27.7189 42.3437 27.4169 42.3437 27.028C42.3437 26.6902 42.2464 26.4138 42.052 26.1989C41.8575 25.9839 41.5197 25.7997 41.0386 25.6461Z" fill="#00478E"/>
<path d="M47.8043 30.1294C47.5689 30.1294 47.3642 30.0424 47.1902 29.8684C47.0264 29.6944 46.9445 29.4897 46.9445 29.2543V19.7964C46.9445 19.561 47.0264 19.3563 47.1902 19.1822C47.3642 19.0082 47.5689 18.9212 47.8043 18.9212H53.2395C53.4749 18.9212 53.6745 19.0082 53.8383 19.1822C54.0123 19.3563 54.0993 19.561 54.0993 19.7964V20.1495C54.0993 20.385 54.0123 20.5897 53.8383 20.7637C53.6745 20.9377 53.4749 21.0247 53.2395 21.0247H49.6775C49.5956 21.0247 49.5546 21.0656 49.5546 21.1475V23.1742C49.5546 23.2663 49.5956 23.3124 49.6775 23.3124H52.9324C53.1679 23.3124 53.3675 23.3994 53.5312 23.5734C53.7052 23.7474 53.7923 23.9521 53.7923 24.1875V24.4179C53.7923 24.6533 53.7052 24.858 53.5312 25.032C53.3675 25.206 53.1679 25.293 52.9324 25.293H49.6775C49.5956 25.293 49.5546 25.334 49.5546 25.4158V27.9031C49.5546 27.985 49.5956 28.026 49.6775 28.026H53.2395C53.4749 28.026 53.6745 28.113 53.8383 28.287C54.0123 28.461 54.0993 28.6657 54.0993 28.9011V29.2543C54.0993 29.4897 54.0123 29.6944 53.8383 29.8684C53.6745 30.0424 53.4749 30.1294 53.2395 30.1294H47.8043Z" fill="#00478E"/>
<path d="M60.8493 30.283C59.1706 30.283 57.8502 29.7865 56.8881 28.7937C55.9259 27.8008 55.4448 26.378 55.4448 24.5253C55.4448 22.7034 55.9105 21.2908 56.842 20.2877C57.7735 19.2744 59.0734 18.7677 60.7418 18.7677C61.5402 18.7677 62.2363 18.824 62.8299 18.9366C63.0756 18.9775 63.2752 19.1004 63.4287 19.3051C63.5823 19.5098 63.659 19.7401 63.659 19.996V20.4873C63.659 20.7023 63.572 20.8712 63.398 20.994C63.224 21.1168 63.0347 21.1526 62.8299 21.1015C62.2465 20.9479 61.6528 20.8712 61.0489 20.8712C60.1277 20.8712 59.4061 21.1833 58.884 21.8077C58.3722 22.4321 58.1164 23.338 58.1164 24.5253C58.1164 25.6922 58.3927 26.5981 58.9455 27.2429C59.4982 27.8878 60.2352 28.2102 61.1564 28.2102C61.7705 28.2102 62.3693 28.1334 62.9528 27.9799C63.1575 27.9287 63.3468 27.9646 63.5209 28.0874C63.7051 28.2102 63.7972 28.3791 63.7972 28.5941V29.0547C63.7972 29.3106 63.7153 29.5409 63.5516 29.7456C63.398 29.9503 63.1984 30.0731 62.9528 30.1141C62.3489 30.2267 61.6477 30.283 60.8493 30.283Z" fill="#00478E"/>
<path d="M74.5062 26.0607C74.5062 28.8755 73.0732 30.283 70.2071 30.283C67.3411 30.283 65.9081 28.8755 65.9081 26.0607V19.7964C65.9081 19.561 65.9951 19.3563 66.1691 19.1822C66.3431 19.0082 66.5478 18.9212 66.7833 18.9212H67.6738C67.9092 18.9212 68.1139 19.0082 68.2879 19.1822C68.4619 19.3563 68.5489 19.561 68.5489 19.7964V26.2449C68.5489 26.941 68.682 27.4374 68.9481 27.7342C69.2143 28.0311 69.6442 28.1795 70.2379 28.1795C70.8315 28.1795 71.2614 28.0311 71.5276 27.7342C71.7937 27.4374 71.9268 26.941 71.9268 26.2449V19.7964C71.9268 19.561 72.0138 19.3563 72.1878 19.1822C72.3618 19.0082 72.5665 18.9212 72.8019 18.9212H73.631C73.8664 18.9212 74.0712 19.0082 74.2452 19.1822C74.4192 19.3563 74.5062 19.561 74.5062 19.7964V26.0607Z" fill="#00478E"/>
<path d="M79.2563 20.9786V23.9265C79.2563 24.0187 79.2973 24.0647 79.3792 24.0647H80.1161C80.8326 24.0647 81.3803 23.9163 81.759 23.6195C82.1377 23.3124 82.3271 22.8876 82.3271 22.3451C82.3271 21.2806 81.6259 20.7483 80.2236 20.7483C79.9063 20.7483 79.6299 20.7688 79.3945 20.8097C79.3024 20.8302 79.2563 20.8865 79.2563 20.9786ZM77.5674 30.1294C77.332 30.1294 77.1273 30.0424 76.9533 29.8684C76.7793 29.6944 76.6923 29.4897 76.6923 29.2543V19.8732C76.6923 19.6173 76.7742 19.3972 76.9379 19.213C77.1119 19.0287 77.3218 18.9264 77.5674 18.9059C78.4784 18.8138 79.415 18.7677 80.3772 18.7677C81.9125 18.7677 83.0538 19.0594 83.801 19.6429C84.5585 20.2161 84.9372 21.0349 84.9372 22.0994C84.9372 22.7852 84.7376 23.4045 84.3384 23.9572C83.9392 24.4997 83.4172 24.8887 82.7723 25.1241C82.7621 25.1241 82.757 25.1292 82.757 25.1395C82.757 25.1599 82.7672 25.1702 82.7877 25.1702C83.2892 25.4568 83.714 26.0607 84.062 26.9819L84.9372 29.3157C85.0089 29.5102 84.9833 29.6944 84.8604 29.8684C84.7376 30.0424 84.5738 30.1294 84.3691 30.1294H83.4325C83.1664 30.1294 82.9259 30.0527 82.7109 29.8991C82.496 29.7456 82.3475 29.546 82.2657 29.3003L81.498 27.0894C81.3547 26.6595 81.1807 26.3678 80.9759 26.2142C80.7712 26.0607 80.4539 25.9839 80.024 25.9839H79.3792C79.2973 25.9839 79.2563 26.03 79.2563 26.1221V29.2543C79.2563 29.4897 79.1693 29.6944 78.9953 29.8684C78.8213 30.0424 78.6166 30.1294 78.3812 30.1294H77.5674Z" fill="#00478E"/>
<path d="M87.568 30.1294C87.3325 30.1294 87.1278 30.0424 86.9538 29.8684C86.79 29.6944 86.7081 29.4897 86.7081 29.2543V19.7964C86.7081 19.561 86.79 19.3563 86.9538 19.1822C87.1278 19.0082 87.3325 18.9212 87.568 18.9212H93.0032C93.2386 18.9212 93.4382 19.0082 93.602 19.1822C93.776 19.3563 93.863 19.561 93.863 19.7964V20.1495C93.863 20.385 93.776 20.5897 93.602 20.7637C93.4382 20.9377 93.2386 21.0247 93.0032 21.0247H89.4411C89.3592 21.0247 89.3183 21.0656 89.3183 21.1475V23.1742C89.3183 23.2663 89.3592 23.3124 89.4411 23.3124H92.6961C92.9315 23.3124 93.1311 23.3994 93.2949 23.5734C93.4689 23.7474 93.5559 23.9521 93.5559 24.1875V24.4179C93.5559 24.6533 93.4689 24.858 93.2949 25.032C93.1311 25.206 92.9315 25.293 92.6961 25.293H89.4411C89.3592 25.293 89.3183 25.334 89.3183 25.4158V27.9031C89.3183 27.985 89.3592 28.026 89.4411 28.026H93.0032C93.2386 28.026 93.4382 28.113 93.602 28.287C93.776 28.461 93.863 28.6657 93.863 28.9011V29.2543C93.863 29.4897 93.776 29.6944 93.602 29.8684C93.4382 30.0424 93.2386 30.1294 93.0032 30.1294H87.568Z" fill="#00478E"/>
<path d="M98.598 21.04V28.0106C98.598 28.1027 98.6441 28.159 98.7362 28.1795C98.9409 28.2204 99.1866 28.2409 99.4732 28.2409C100.507 28.2409 101.27 27.939 101.761 27.3351C102.262 26.7311 102.513 25.7434 102.513 24.3718C102.513 23.1435 102.262 22.2427 101.761 21.6695C101.259 21.0963 100.497 20.8097 99.4732 20.8097C99.1866 20.8097 98.9409 20.8302 98.7362 20.8712C98.6441 20.8916 98.598 20.9479 98.598 21.04ZM96.9091 30.1601C96.6635 30.1397 96.4587 30.0373 96.295 29.8531C96.1312 29.6586 96.0493 29.4334 96.0493 29.1775V19.8732C96.0493 19.6173 96.1312 19.3972 96.295 19.213C96.4587 19.0185 96.6635 18.911 96.9091 18.8905C97.7075 18.8086 98.4957 18.7677 99.2736 18.7677C101.106 18.7677 102.518 19.2539 103.511 20.2263C104.504 21.1987 105.001 22.5805 105.001 24.3718C105.001 26.3166 104.504 27.7905 103.511 28.7937C102.518 29.7865 101.106 30.283 99.2736 30.283C98.4957 30.283 97.7075 30.242 96.9091 30.1601Z" fill="#00478E"/>
</g>
</g>
</svg>
